<svg width="614" height="614" viewBox="0 0 614 614" fill="none" xmlns="http://www.w3.org/2000/svg">
  <rect width="614" height="614" rx="35" fill="#18181B" />
  <path
    d="M296.974 172.5C301.208 165.167 311.792 165.167 316.026 172.5L485.334 465.75C489.568 473.083 484.276 482.25 475.808 482.25H137.192C128.724 482.25 123.432 473.083 127.666 465.75L296.974 172.5Z"
    fill="white" />
  <circle cx="440.5" cy="380.5" r="73.5" fill="#619CBC" fill-opacity="0.95" />
  <circle cx="195" cy="300" r="74" fill="#D172CB" fill-opacity="0.95" />
  <path
    d="M377.36 138.794C382.993 133.546 392.193 136.364 393.921 143.866L416.667 242.605C418.395 250.106 411.355 256.665 403.994 254.411L307.111 224.74C299.75 222.486 297.59 213.109 303.223 207.862L377.36 138.794Z"
    fill="#DFDB84" fill-opacity="0.95" />
</svg>